<svg width="612" height="840" viewBox="0 0 612 840" fill="none" xmlns="http://www.w3.org/2000/svg">
<g clip-path="url(#clip0_1395_319)">
<path fill-rule="evenodd" clip-rule="evenodd" d="M371.073 739.949C374.374 744.257 380.271 746.976 388.763 748.107L399.745 749.568C408.238 750.699 414.494 749.597 418.514 746.264C422.9 742.426 425.598 736.706 426.61 729.104L457.294 498.584L459.051 498.818L504.67 727.707C504.742 728.254 504.818 728.79 504.897 729.313L499.09 754.591L352.898 839.02L367.799 726.675C367.767 731.894 368.858 736.318 371.073 739.949ZM537.118 589.058L610.262 270.667L605.348 267.799L513.346 467.082L537.118 589.058ZM555.597 238.757L496.473 204.245L466.727 427.717L468.484 427.951L555.597 238.757ZM441.378 172.084L441.358 172.072L438.925 190.41L441.229 173.123C441.276 172.772 441.325 172.426 441.378 172.084Z" fill="#EA482D"/>
<path d="M89.1811 50.1513L116.305 155.178C118.312 162.951 125.224 168.455 133.249 168.671L302.379 173.218C310.589 173.439 317.908 168.074 320.168 160.179L349.686 57.0739C350.198 55.2857 348.205 53.8281 346.656 54.8579L265.417 108.862C264.362 109.564 262.928 109.119 262.455 107.943L222.987 9.88946C222.33 8.25771 220.039 8.20746 219.311 9.80886L175.779 105.611C175.255 106.762 173.808 107.145 172.784 106.402L92.2916 48.0321C90.774 46.9316 88.7123 48.3362 89.1811 50.1513Z" fill="#F9CB43" stroke="#FF623E" stroke-width="16"/>
<path fill-rule="evenodd" clip-rule="evenodd" d="M196.665 713.461C183.865 713.461 173.731 711.595 166.265 707.861C159.331 704.128 154.798 697.728 152.665 688.661L26.265 184.661C24.665 176.128 23.865 170.528 23.865 167.861C23.865 163.444 25.4143 159.859 28.513 157.105C11.0053 157.823 0.148438 158.367 0.148438 158.367L45.8564 831.185C45.8564 831.185 139.744 827.44 199.88 828.985C259.747 830.523 352.9 839.017 352.9 839.017L441.369 172.08C441.369 172.08 432.312 171.062 417.38 169.507C417.263 170.704 417.024 172.022 416.665 173.461C416.665 175.595 416.131 179.328 415.065 184.661L288.665 688.661C286.531 697.728 281.731 704.128 274.265 707.861C267.331 711.595 257.465 713.461 244.665 713.461H196.665ZM219.477 154.264C188.008 153.309 150.048 153.61 114.617 154.373C121.343 156.559 125.492 161.322 127.065 168.661L219.865 603.061H223.065L314.265 168.661C314.98 165.324 316.228 162.519 318.008 160.248C284.415 157.527 249.142 155.164 219.477 154.264ZM155.278 735.093C149.743 735.333 145.514 740.057 145.825 745.588L148.203 787.905C148.506 793.289 153.006 797.467 158.397 797.382C172.815 797.153 200.389 796.863 220.111 797.56C239.709 798.253 266.979 800.465 281.391 801.712C286.85 802.185 291.682 798.203 292.252 792.752L296.825 749.034C297.402 743.514 293.381 738.586 287.852 738.096C272.305 736.717 241.899 734.234 220.111 733.792C199.358 733.371 170.365 734.438 155.278 735.093Z" fill="#FF623E"/>
</g>
<defs>
<clipPath id="clip0_1395_319">
<rect width="611" height="840" fill="white" transform="translate(0.148438)"/>
</clipPath>
</defs>
</svg>
